<?xml version="1.0" encoding="UTF-8" standalone="no"?><!-- Generator: Gravit.io -->
<svg style="isolation:isolate" height="1024pt" viewBox="0 0 1024 1024" width="1024pt" xmlns="http://www.w3.org/2000/svg">
    <defs>
        <clipPath id="_clipPath_QsWM5wxdw1VYBEkxhaGTgtzS0ciark3P">
            <rect height="1024" width="1024" />
        </clipPath>
    </defs>
    <g clip-path="url(#_clipPath_QsWM5wxdw1VYBEkxhaGTgtzS0ciark3P)">
        <g>
            <linearGradient gradientTransform="matrix(410.81,0,0,586,306.595,199)" gradientUnits="userSpaceOnUse" id="_lgradient_0"
                x1="0.1464466094067262" x2="0.8535533905932737"
                y1="0.14644660940672627"
                y2="0.8535533905932737">
                <stop style="stop-color:rgb(128,128,255)" offset="0%" stop-opacity="1" />
                <stop style="stop-color:rgb(110,110,255)" offset="100%" stop-opacity="1" />
            </linearGradient>
            <path
                d=" M 404.252 358.131 L 421.888 328.038 L 487.29 216.451 C 500.928 193.183 523.072 193.183 536.71 216.451 L 602.112 328.038 L 681.958 464.271 C 704.327 497.157 717.405 536.86 717.405 579.595 C 717.405 692.961 625.366 785 512 785 C 398.634 785 306.595 692.961 306.595 579.595 C 306.595 536.86 319.673 497.157 342.042 464.271 L 390.129 382.226 L 441.541 433.617 L 441.541 433.617 C 438.402 439.705 436.629 446.609 436.629 453.925 L 436.629 453.925 L 436.629 453.925 C 436.629 473.288 449.05 489.774 466.352 495.842 L 466.352 648.824 C 449.05 654.891 436.629 671.375 436.629 690.739 L 436.629 690.739 L 436.629 690.739 L 436.629 690.739 C 436.629 715.247 456.527 735.146 481.035 735.146 C 505.543 735.146 525.441 715.247 525.441 690.739 C 525.441 671.382 513.027 654.9 495.733 648.828 L 495.733 495.836 C 497.674 495.154 499.551 494.342 501.357 493.41 L 560.259 552.288 C 556.927 558.518 555.036 565.635 555.036 573.188 L 555.036 573.188 C 555.036 597.696 574.934 617.593 599.442 617.593 C 623.95 617.593 643.848 597.696 643.848 573.188 C 643.848 548.68 623.95 528.783 599.442 528.783 C 592.328 528.783 585.601 530.459 579.638 533.438 L 520.487 474.313 C 523.652 468.207 525.441 461.272 525.441 453.925 C 525.441 429.417 505.543 409.52 481.035 409.52 C 473.679 409.52 466.74 411.312 460.629 414.483 L 404.252 358.131 Z "
                fill="url(#_lgradient_0)" />
        </g>
    </g>
</svg>