<?xml version="1.0" encoding="UTF-8" standalone="no"?>
<svg style="isolation:isolate" height="1024pt" viewBox="0 0 1024 1024" width="1024pt" xmlns="http://www.w3.org/2000/svg">
    <path d=" M 379.053 379.629 L 331.231 461.222 C 307.439 496.199 293.53 538.428 293.53 583.881 C 293.53 704.458 391.423 802.351 512 802.351 C 632.577 802.351 730.47 704.458 730.47 583.881 C 730.47 538.428 716.561 496.199 692.769 461.222 L 538.281 197.639 C 523.776 172.89 500.224 172.89 485.719 197.639 L 399.846 344.152 L 452.177 394.359 C 458.256 391.728 464.959 390.269 472 390.269 C 499.596 390.269 522 412.673 522 440.269 C 522 446.577 520.829 452.614 518.693 458.174 L 586.686 523.406 C 592.122 521.378 598.004 520.269 604.143 520.269 C 631.739 520.269 654.143 542.673 654.143 570.269 C 654.143 597.865 631.739 620.269 604.143 620.269 C 576.548 620.269 554.143 597.865 554.143 570.269 L 554.143 570.269 C 554.143 563.526 555.481 557.092 557.906 551.22 L 492.72 488.681 L 492.72 644.758 C 509.987 652.639 522 670.062 522 690.269 C 522 717.865 499.596 740.269 472 740.269 C 444.404 740.269 422 717.865 422 690.269 L 422 690.269 L 422 690.269 L 422 690.269 C 422 669.505 434.684 651.681 452.72 644.128 L 452.72 486.411 C 434.684 478.858 422 461.033 422 440.269 L 422 440.269 L 422 440.269 C 422 434.416 423.008 428.797 424.859 423.575 L 424.859 423.575 L 379.053 379.629 Z "
        fill="url(#gloom_gradient)" />

    <linearGradient gradientTransform="matrix(436.94,0,0,623.274,293.53,179.077)" gradientUnits="userSpaceOnUse" id="gloom_gradient" x1="0.1464466094067262" x2="0.8535533905932737"
        y1="0.14644660940672627" y2="0.8535533905932737">
        <stop style="stop-color:rgb(128,128,255)" offset="0%" stop-opacity="1" />
        <stop style="stop-color:rgb(110,110,255)" offset="100%" stop-opacity="1" />
    </linearGradient>
</svg>